Format                                   : Matroska
Format version                           : Version 2
File size                                : 697 MiB
Duration                                 : 2h 3mn
Overall bit rate                         : 789 Kbps
Movie name                               : Mere Dost Picture Abhi Baki Hai [2012]-1CD-DVDRip-By-K@rtik [EXD Exclusive]
Codec ID                                 : V_MPEG4/ISO/AVC
Duration                                 : 2h 3mn
Bit rate                                 : 660 Kbps
Width                                    : 720 pixels
Height                                   : 304 pixels
Display aspect ratio                     : 2.35:1
Frame rate                               : 29.970 fps
Color space                              : YUV
Chroma subsampling                       : 4:2:0
Bit depth                                : 8 bits
Scan type                                : Progressive
Bits/(Pixel*Frame)                       : 0.101
Stream size                              : 570 MiB (82%)
Title                                    : K@rtik
Codec ID                                 : A_AC3
Duration                                 : 2h 3mn
Bit rate mode                            : Constant
Bit rate                                 : 128 Kbps
Channel(s)                               : 2 channels
Channel positions                        : Front: L R
Sampling rate                            : 48.0 KHz
Bit depth                                : 16 bits
Compression mode                         : Lossy
Stream size                              : 113 MiB (16%)
Title                                    : K@rtik 
http://imageshack.us/a/img571/9428/20185190.png 
http://imageshack.us/a/img594/3964/85155179.png 
http://imageshack.us/a/img4/130/63535034.png 
http://imageshack.us/a/img14/5820/79692420.png 
http://imageshack.us/a/img707/2898/32730447.png 
http://imageshack.us/a/img221/3627/54844625.png 
http://imageshack.us/a/img651/6117/16145883.png 
http://imageshack.us/a/img846/1623/76309689.png 
http://imageshack.us/a/img100/1813/57760269.png 
http://imageshack.us/a/img690/6836/86032693.png

